<svg xmlns="http://www.w3.org/2000/svg" xmlns:xlink="http://www.w3.org/1999/xlink" width="1024" zoomAndPan="magnify" viewBox="0 0 768 767.999994" height="1024" preserveAspectRatio="xMidYMid meet" version="1.0"><defs><g/><clipPath id="7ae148e75f"><path d="M 384 0 C 171.921875 0 0 171.921875 0 384 C 0 596.078125 171.921875 768 384 768 C 596.078125 768 768 596.078125 768 384 C 768 171.921875 596.078125 0 384 0 Z M 384 0 " clip-rule="nonzero"/></clipPath></defs><g clip-path="url(#7ae148e75f)"><rect x="-76.8" width="921.6" fill="#335c67" y="-76.799999" height="921.599993" fill-opacity="1"/></g><g fill="#ffffff" fill-opacity="1"><g transform="translate(201.679681, 489.749996)"><g><path d="M 90.3125 0 L 25.859375 0 L 25.859375 -207.34375 L 90.3125 -207.34375 Z M 58.09375 -297.640625 C 68.550781 -297.640625 76.816406 -294.53125 82.890625 -288.3125 C 88.972656 -282.09375 92.15625 -274.320312 92.4375 -265 C 92.4375 -256.238281 89.328125 -248.675781 83.109375 -242.3125 C 76.890625 -235.957031 68.40625 -232.78125 57.65625 -232.78125 C 47.488281 -232.78125 39.296875 -235.957031 33.078125 -242.3125 C 26.859375 -248.675781 23.890625 -256.238281 24.171875 -265 C 23.890625 -274.320312 26.859375 -282.09375 33.078125 -288.3125 C 39.296875 -294.53125 47.632812 -297.640625 58.09375 -297.640625 Z M 58.09375 -297.640625 "/></g></g></g><g fill="#ffffff" fill-opacity="1"><g transform="translate(317.854762, 489.749996)"><g><path d="M 25.859375 0 L 25.859375 -141.1875 C 25.859375 -154.195312 25.71875 -166.210938 25.4375 -177.234375 C 25.15625 -188.253906 24.734375 -198.289062 24.171875 -207.34375 L 80.140625 -207.34375 L 83.109375 -178.921875 L 84.375 -178.921875 C 87.195312 -183.453125 91.4375 -188.257812 97.09375 -193.34375 C 102.75 -198.425781 109.882812 -202.804688 118.5 -206.484375 C 127.125 -210.160156 137.09375 -212 148.40625 -212 C 169.601562 -212 187.265625 -204.789062 201.390625 -190.375 C 215.523438 -175.957031 222.59375 -153.484375 222.59375 -122.953125 L 222.59375 0 L 158.15625 0 L 158.15625 -114.90625 C 158.15625 -128.1875 155.609375 -138.992188 150.515625 -147.328125 C 145.429688 -155.671875 137.09375 -159.84375 125.5 -159.84375 C 116.738281 -159.84375 109.671875 -157.296875 104.296875 -152.203125 C 98.929688 -147.117188 95.117188 -141.613281 92.859375 -135.6875 C 92.003906 -133.707031 91.363281 -131.300781 90.9375 -128.46875 C 90.519531 -125.644531 90.3125 -122.675781 90.3125 -119.5625 L 90.3125 0 Z M 25.859375 0 "/></g></g></g></svg>